<svg width="303" height="71" viewBox="0 0 303 71" fill="none" xmlns="http://www.w3.org/2000/svg">
<g style="mix-blend-mode:multiply" opacity="0.6">
<circle cx="267.499" cy="43.6672" r="12.3332" fill="#2929F7"/>
</g>
<g style="mix-blend-mode:multiply" opacity="0.6">
<circle cx="261.333" cy="31.3332" r="12.3332" fill="#FC2323"/>
</g>
<g style="mix-blend-mode:multiply" opacity="0.6">
<circle cx="273.667" cy="31.3332" r="12.3332" fill="#68F313"/>
</g>
<path d="M56.3838 25.3599C56.3838 29.6479 55.3918 33.5519 53.4078 37.0719C51.4238 40.5279 48.4798 43.2799 44.5758 45.3279C40.7358 47.3759 36.0638 48.3999 30.5598 48.3999H22.1118V69.9999H0.799805V2.03188H30.5598C38.8798 2.03188 45.2478 4.14388 49.6638 8.36788C54.1438 12.5919 56.3838 18.2559 56.3838 25.3599ZM28.1598 31.5999C32.5758 31.5999 34.7838 29.5199 34.7838 25.3599C34.7838 21.1999 32.5758 19.1199 28.1598 19.1199H22.1118V31.5999H28.1598Z" fill="#0F1F48"/>
<path d="M105.48 69.9999L92.9996 52.3359L82.6316 69.9999H58.3436L80.7116 34.9599L57.3836 2.03188H82.6316L94.6316 19.0239L104.616 2.03188H128.904L106.92 36.3999L130.728 69.9999H105.48Z" fill="#0F1F48"/>
<path d="M155.848 19.0239V27.3759H176.968V43.4079H155.848V53.0079H179.848V69.9999H134.536V2.03188H179.848V19.0239H155.848Z" fill="#0F1F48"/>
<path d="M208.232 53.8719H228.776V69.9999H186.92V2.03188H208.232V53.8719Z" fill="#0F1F48"/>
<path d="M267.642 70.6719C261.242 70.6719 255.354 69.1679 249.978 66.1599C244.666 63.1519 240.442 58.9919 237.306 53.6799C234.17 48.3679 232.602 42.3839 232.602 35.7279C232.602 29.0719 234.17 23.0879 237.306 17.7759C240.442 12.4639 244.666 8.33588 249.978 5.39188C255.354 2.38388 261.242 0.879883 267.642 0.879883C274.042 0.879883 279.898 2.38388 285.21 5.39188C290.522 8.33588 294.714 12.4639 297.786 17.7759C300.922 23.0879 302.49 29.0719 302.49 35.7279C302.49 42.3839 300.922 48.3679 297.786 53.6799C294.714 58.9919 290.49 63.1519 285.114 66.1599C279.802 69.1679 273.978 70.6719 267.642 70.6719ZM267.642 50.7999C271.866 50.7999 275.13 49.4559 277.434 46.7679C279.738 44.0159 280.89 40.3359 280.89 35.7279C280.89 31.0559 279.738 27.3759 277.434 24.6879C275.13 21.9359 271.866 20.5599 267.642 20.5599C263.354 20.5599 260.058 21.9359 257.754 24.6879C255.45 27.3759 254.298 31.0559 254.298 35.7279C254.298 40.3359 255.45 44.0159 257.754 46.7679C260.058 49.4559 263.354 50.7999 267.642 50.7999Z" fill="#0F1F48"/>
</svg>
