<svg width="302" height="70" viewBox="0 0 302 70" fill="none" xmlns="http://www.w3.org/2000/svg">
<path d="M55.584 24.48C55.584 28.768 54.592 32.672 52.608 36.192C50.624 39.648 47.68 42.4 43.776 44.448C39.936 46.496 35.264 47.52 29.76 47.52H21.312V69.12H0V1.152H29.76C38.08 1.152 44.448 3.264 48.864 7.488C53.344 11.712 55.584 17.376 55.584 24.48ZM27.36 30.72C31.776 30.72 33.984 28.64 33.984 24.48C33.984 20.32 31.776 18.24 27.36 18.24H21.312V30.72H27.36Z" fill="white"/>
<path d="M104.68 69.12L92.1998 51.456L81.8317 69.12H57.5438L79.9118 34.08L56.5838 1.152H81.8317L93.8317 18.144L103.816 1.152H128.104L106.12 35.52L129.928 69.12H104.68Z" fill="white"/>
<path d="M155.048 18.144V26.496H176.168V42.528H155.048V52.128H179.048V69.12H133.736V1.152H179.048V18.144H155.048Z" fill="white"/>
<path d="M207.432 52.992H227.976V69.12H186.12V1.152H207.432V52.992Z" fill="white"/>
<path d="M266.843 69.792C260.443 69.792 254.554 68.288 249.178 65.28C243.866 62.272 239.643 58.112 236.507 52.8C233.371 47.488 231.803 41.504 231.803 34.848C231.803 28.192 233.371 22.208 236.507 16.896C239.643 11.584 243.866 7.456 249.178 4.512C254.554 1.504 260.443 0 266.843 0C273.243 0 279.099 1.504 284.411 4.512C289.723 7.456 293.915 11.584 296.987 16.896C300.123 22.208 301.691 28.192 301.691 34.848C301.691 41.504 300.123 47.488 296.987 52.8C293.915 58.112 289.691 62.272 284.315 65.28C279.003 68.288 273.179 69.792 266.843 69.792ZM266.843 49.92C271.067 49.92 274.331 48.576 276.635 45.888C278.939 43.136 280.091 39.456 280.091 34.848C280.091 30.176 278.939 26.496 276.635 23.808C274.331 21.056 271.067 19.68 266.843 19.68C262.555 19.68 259.259 21.056 256.955 23.808C254.651 26.496 253.498 30.176 253.498 34.848C253.498 39.456 254.651 43.136 256.955 45.888C259.259 48.576 262.555 49.92 266.843 49.92Z" fill="white"/>
</svg>
